Coordinates
version=1
nRows=8
nColumns=34
inDegrees=yes

Units are S.I. units (second, meters, Newtons, ...)
If the header above contains a line with 'inDegrees', this indicates whether rotational values are in degrees (yes) or radians (no).

endheader
time	pelvis_tilt	pelvis_list	pelvis_rotation	pelvis_tx	pelvis_ty	pelvis_tz	hip_flexion_r	hip_adduction_r	hip_rotation_r	knee_angle_r	ankle_angle_r	subtalar_angle_r	mtp_angle_r	hip_flexion_l	hip_adduction_l	hip_rotation_l	knee_angle_l	ankle_angle_l	subtalar_angle_l	mtp_angle_l	lumbar_extension	lumbar_bending	lumbar_rotation	arm_flex_r	arm_add_r	arm_rot_r	elbow_flex_r	pro_sup_r	arm_flex_l	arm_add_l	arm_rot_l	elbow_flex_l	pro_sup_l
      7.46666670	    -37.09439970	     -0.21846756	      5.57742343	      0.52136505	      0.56219225	     -0.10064793	    119.71530413	    -22.08327491	      3.75511208	    116.19595829	     32.52964154	    -24.52085639	      0.00000000	    119.99999986	    -10.64453562	      2.82154335	    115.11680796	     34.50868779	     -4.06710808	      0.00000000	    -35.62472876	      4.44065554	     -9.31542623	    132.44941066	     -1.03259991	     33.05259173	     51.18660926	     76.82293594	    131.85700406	     -4.52754245	     38.26546274	     54.02960472	     37.39555630
      7.48333330	    -35.06604704	      0.15921440	      6.10398608	      0.53351674	      0.54800800	     -0.12192392	    119.99999986	    -23.54189542	      5.91927283	    118.81798854	     32.99308004	    -23.88848354	      0.00000000	    119.99999986	     -9.94706479	      2.25553571	    117.86262363	     35.29970292	     -4.32360940	      0.00000000	    -37.70997714	      4.90141188	     -8.79933864	    133.24663554	     -2.02286434	     32.68958240	     50.42589876	     76.80480580	    130.68290189	     -3.73417644	     38.26063803	     53.75493369	     37.55238059
      7.50000000	    -33.07574491	      0.16470495	      6.14836278	      0.52287595	      0.54273181	     -0.11761589	    119.60767874	    -24.23878129	      7.13319904	    120.06876889	     34.31159572	    -21.16769932	      0.00000000	    119.99999986	     -9.35484392	      2.02192195	    119.72528129	     35.27541412	     -4.79580491	      0.00000000	    -40.08023186	      5.29963352	     -7.59761303	    134.29267988	     -2.45296376	     33.99882062	     49.84194205	     76.80006177	    129.53704890	     -1.15707373	     32.86449298	     51.93795250	     39.45743074
      7.51666670	    -32.00051061	     -0.16863594	      6.79151603	      0.54334564	      0.54213780	     -0.12727225	    119.29729003	    -25.98702271	      8.11370455	    121.67809741	     35.63530711	    -19.82439444	      0.00000000	    119.99999986	     -8.25520548	      1.97992798	    121.36150579	     35.16864095	     -5.54456280	      0.00000000	    -41.08000233	      6.78053143	     -8.15185681	    132.41300343	     -2.58506705	     32.90816708	     50.55020402	     76.75226266	    128.13654926	     -1.29394511	     31.42246055	     51.17994966	     39.86682529
      7.53333330	    -32.16698244	     -0.44836740	      7.27766400	      0.56405790	      0.54787464	     -0.13285031	    119.17118420	    -27.66356572	      8.69551880	    122.47081456	     35.94742510	    -19.10199282	      0.00000000	    119.99999986	     -7.81541135	      1.58909782	    122.45396184	     35.54845179	     -5.78708074	      0.00000000	    -40.65712369	      7.77495073	     -8.34216939	    128.16073427	     -3.08650789	     29.86642173	     55.30584536	     77.12929421	    126.50999009	     -0.61174700	     29.09895084	     50.44274596	     40.93365174
      7.55000000	    -30.77824294	     -0.38774232	      7.60629945	      0.52507158	      0.51267424	     -0.12255615	    119.65516340	    -28.43932536	      9.35340632	    123.72866538	     36.36948195	    -17.97620449	      0.00000000	    119.99999986	     -7.25884731	      1.63372199	    123.62902193	     35.72713711	     -5.87878048	      0.00000000	    -42.49485633	      8.27551113	     -8.57839713	    130.88331599	     -2.23022019	     30.18678877	     51.76479484	     77.17777464	    131.55477042	      0.06244193	     30.79065622	     44.27790032	     41.35288033
      7.56666670	    -28.83996858	     -0.18888554	      7.47641563	      0.53431365	      0.50379382	     -0.13621871	    119.87705342	    -28.96927901	     10.77105393	    125.82907137	     38.11321608	    -15.60707774	      0.00000000	    119.99999986	     -7.03678940	      1.95877599	    125.94806722	     35.45439468	     -6.69858758	      0.00000000	    -44.87903204	      8.73065735	     -8.60626550	    133.23155809	     -2.03853711	     31.45816197	     49.83340052	     76.95275743	    135.83662612	      0.11099460	     33.04821628	     39.26061116	     40.87857008
      7.58333330	    -27.14926176	      0.23663014	      6.84601858	      0.51826912	      0.49794597	     -0.13363144	    119.99999986	    -28.44493832	     11.58944917	    126.91432179	     38.45603290	    -13.93291731	      0.00000000	    119.99999986	     -7.29706338	      2.22542075	    127.24482193	     35.45166708	     -6.70415899	      0.00000000	    -47.28146767	      8.50189614	     -8.24288219	    136.97178021	     -1.07001099	     32.38024573	     45.12628870	     76.28502460	    140.22401306	      0.73485624	     34.44133782	     34.33701892	     39.89191082
